<?xml version="1.0" encoding="UTF-8"?>
<svg xmlns="http://www.w3.org/2000/svg" viewBox="0 0 1400 950" width="1400" height="950">
  <defs>
    <!-- Gradients -->
    <linearGradient id="headerGrad" x1="0%" y1="0%" x2="100%" y2="0%">
      <stop offset="0%" style="stop-color:#2b6cb0"/>
      <stop offset="100%" style="stop-color:#4299e1"/>
    </linearGradient>
    <linearGradient id="pcpGrad" x1="0%" y1="0%" x2="0%" y2="100%">
      <stop offset="0%" style="stop-color:#38a169"/>
      <stop offset="100%" style="stop-color:#48bb78"/>
    </linearGradient>
    <linearGradient id="cardioGrad" x1="0%" y1="0%" x2="0%" y2="100%">
      <stop offset="0%" style="stop-color:#805ad5"/>
      <stop offset="100%" style="stop-color:#9f7aea"/>
    </linearGradient>
    <linearGradient id="edGrad" x1="0%" y1="0%" x2="0%" y2="100%">
      <stop offset="0%" style="stop-color:#c53030"/>
      <stop offset="100%" style="stop-color:#e53e3e"/>
    </linearGradient>
    <linearGradient id="timelineGrad" x1="0%" y1="0%" x2="100%" y2="0%">
      <stop offset="0%" style="stop-color:#2d3748"/>
      <stop offset="100%" style="stop-color:#4a5568"/>
    </linearGradient>

    <!-- Shadow filter -->
    <filter id="shadow" x="-10%" y="-10%" width="120%" height="120%">
      <feDropShadow dx="2" dy="3" stdDeviation="3" flood-opacity="0.2"/>
    </filter>
    <filter id="softShadow" x="-5%" y="-5%" width="110%" height="110%">
      <feDropShadow dx="1" dy="2" stdDeviation="2" flood-opacity="0.15"/>
    </filter>
  </defs>

  <!-- Background -->
  <rect width="1400" height="950" fill="#f8fafc"/>

  <!-- Header -->
  <rect x="0" y="0" width="1400" height="80" fill="url(#headerGrad)"/>
  <text x="700" y="35" font-family="Arial, sans-serif" font-size="26" font-weight="bold" fill="white" text-anchor="middle">VISIT HISTORY TIMELINE</text>
  <text x="700" y="60" font-family="Arial, sans-serif" font-size="14" fill="#bee3f8" text-anchor="middle">Maria Rodriguez — January - February 2026 — Complete Care Journey</text>

  <!-- Timeline Base -->
  <rect x="100" y="150" width="1200" height="8" rx="4" fill="url(#timelineGrad)"/>

  <!-- Visit 1: Jan 13 PCP -->
  <g>
    <line x1="180" y1="150" x2="180" y2="115" stroke="#38a169" stroke-width="3"/>
    <circle cx="180" cy="154" r="15" fill="#38a169" stroke="white" stroke-width="3" filter="url(#shadow)"/>
    <text x="180" y="100" font-family="Arial, sans-serif" font-size="12" font-weight="bold" fill="#2d3748" text-anchor="middle">Jan 13</text>

    <rect x="70" y="190" width="220" height="200" rx="10" fill="white" stroke="#38a169" stroke-width="3" filter="url(#shadow)"/>
    <rect x="70" y="190" width="220" height="35" rx="10" fill="url(#pcpGrad)"/>
    <rect x="70" y="215" width="220" height="10" fill="url(#pcpGrad)"/>
    <text x="180" y="215" font-family="Arial, sans-serif" font-size="12" font-weight="bold" fill="white" text-anchor="middle">PCP Visit #1</text>

    <g font-family="Arial, sans-serif" font-size="10" fill="#4a5568">
      <text x="90" y="255" font-weight="bold" fill="#276749">Sarah Chen, MD</text>
      <text x="90" y="270">Community Health Clinic</text>
      <text x="90" y="290" font-weight="bold">Chief Complaint:</text>
      <text x="90" y="305">DM follow-up, fatigue</text>
      <text x="90" y="325" font-weight="bold">Key Findings:</text>
      <text x="90" y="340">• BP: 148/92 (High)</text>
      <text x="90" y="355">• HR: 98 irregular</text>
      <text x="90" y="370">• EKG: Atrial Fibrillation</text>
      <text x="90" y="388" font-weight="bold" fill="#c53030">NEW DX: AFib (I48.91)</text>
    </g>
  </g>

  <!-- Visit 2: Jan 17 Cardiology -->
  <g>
    <line x1="430" y1="150" x2="430" y2="115" stroke="#805ad5" stroke-width="3"/>
    <circle cx="430" cy="154" r="15" fill="#805ad5" stroke="white" stroke-width="3" filter="url(#shadow)"/>
    <text x="430" y="100" font-family="Arial, sans-serif" font-size="12" font-weight="bold" fill="#2d3748" text-anchor="middle">Jan 17</text>

    <rect x="320" y="190" width="220" height="200" rx="10" fill="white" stroke="#805ad5" stroke-width="3" filter="url(#shadow)"/>
    <rect x="320" y="190" width="220" height="35" rx="10" fill="url(#cardioGrad)"/>
    <rect x="320" y="215" width="220" height="10" fill="url(#cardioGrad)"/>
    <text x="430" y="215" font-family="Arial, sans-serif" font-size="12" font-weight="bold" fill="white" text-anchor="middle">Cardiology Consult</text>

    <g font-family="Arial, sans-serif" font-size="10" fill="#4a5568">
      <text x="340" y="255" font-weight="bold" fill="#553c9a">Michael Torres, MD</text>
      <text x="340" y="270">Springfield Cardiology</text>
      <text x="340" y="290" font-weight="bold">Procedures:</text>
      <text x="340" y="305">• Echo (93306): EF 55%</text>
      <text x="340" y="320">• LA mildly dilated</text>
      <text x="340" y="340" font-weight="bold">Treatment Plan:</text>
      <text x="340" y="355">• Apixaban 5mg BID</text>
      <text x="340" y="370">• Metoprolol ↑ 50mg</text>
      <text x="340" y="388" font-weight="bold" fill="#805ad5">BP: 142/88</text>
    </g>
  </g>

  <!-- Visit 3: Jan 25 ED (RVR) -->
  <g>
    <line x1="680" y1="150" x2="680" y2="115" stroke="#c53030" stroke-width="3"/>
    <circle cx="680" cy="154" r="15" fill="#c53030" stroke="white" stroke-width="3" filter="url(#shadow)"/>
    <text x="680" y="100" font-family="Arial, sans-serif" font-size="12" font-weight="bold" fill="#2d3748" text-anchor="middle">Jan 25</text>

    <rect x="570" y="190" width="220" height="200" rx="10" fill="white" stroke="#c53030" stroke-width="3" filter="url(#shadow)"/>
    <rect x="570" y="190" width="220" height="35" rx="10" fill="url(#edGrad)"/>
    <rect x="570" y="215" width="220" height="10" fill="url(#edGrad)"/>
    <text x="680" y="215" font-family="Arial, sans-serif" font-size="12" font-weight="bold" fill="white" text-anchor="middle">⚠️ ED Visit (RVR)</text>

    <g font-family="Arial, sans-serif" font-size="10" fill="#4a5568">
      <text x="590" y="255" font-weight="bold" fill="#c53030">Springfield General ED</text>
      <text x="590" y="270">Chief Complaint: Palpitations</text>
      <text x="590" y="290" font-weight="bold">Presentation:</text>
      <text x="590" y="305">• HR: 142 bpm (RVR)</text>
      <text x="590" y="320">• AFib with rapid response</text>
      <text x="590" y="340" font-weight="bold">Treatment:</text>
      <text x="590" y="355">• IV Diltiazem</text>
      <text x="590" y="370">• Rate controlled → 82 bpm</text>
      <text x="590" y="388" font-weight="bold" fill="#38a169">Discharged same day</text>
    </g>
  </g>

  <!-- Visit 4: Jan 27 PCP Follow-up -->
  <g>
    <line x1="930" y1="150" x2="930" y2="115" stroke="#38a169" stroke-width="3"/>
    <circle cx="930" cy="154" r="15" fill="#38a169" stroke="white" stroke-width="3" filter="url(#shadow)"/>
    <text x="930" y="100" font-family="Arial, sans-serif" font-size="12" font-weight="bold" fill="#2d3748" text-anchor="middle">Jan 27</text>

    <rect x="820" y="190" width="220" height="200" rx="10" fill="white" stroke="#38a169" stroke-width="3" filter="url(#shadow)"/>
    <rect x="820" y="190" width="220" height="35" rx="10" fill="url(#pcpGrad)"/>
    <rect x="820" y="215" width="220" height="10" fill="url(#pcpGrad)"/>
    <text x="930" y="215" font-family="Arial, sans-serif" font-size="12" font-weight="bold" fill="white" text-anchor="middle">PCP Follow-up</text>

    <g font-family="Arial, sans-serif" font-size="10" fill="#4a5568">
      <text x="840" y="255" font-weight="bold" fill="#276749">Sarah Chen, MD</text>
      <text x="840" y="270">Community Health Clinic</text>
      <text x="840" y="290" font-weight="bold">Post-ED Review:</text>
      <text x="840" y="305">• RVR episode discussed</text>
      <text x="840" y="320">• Medication reconciliation</text>
      <text x="840" y="340" font-weight="bold">Outcomes:</text>
      <text x="840" y="355">• BP: 132/82 ✓ HEDIS met</text>
      <text x="840" y="370">• HR: 72 regular</text>
      <text x="840" y="388" font-weight="bold" fill="#38a169">Diltiazem 120mg added</text>
    </g>
  </g>

  <!-- Visit 5: Feb 14 Cardiology F/U -->
  <g>
    <line x1="1180" y1="150" x2="1180" y2="115" stroke="#805ad5" stroke-width="3"/>
    <circle cx="1180" cy="154" r="15" fill="#805ad5" stroke="white" stroke-width="3" filter="url(#shadow)"/>
    <text x="1180" y="100" font-family="Arial, sans-serif" font-size="12" font-weight="bold" fill="#2d3748" text-anchor="middle">Feb 14</text>

    <rect x="1070" y="190" width="220" height="200" rx="10" fill="white" stroke="#805ad5" stroke-width="3" filter="url(#shadow)"/>
    <rect x="1070" y="190" width="220" height="35" rx="10" fill="url(#cardioGrad)"/>
    <rect x="1070" y="215" width="220" height="10" fill="url(#cardioGrad)"/>
    <text x="1180" y="215" font-family="Arial, sans-serif" font-size="12" font-weight="bold" fill="white" text-anchor="middle">Cardiology Follow-up</text>

    <g font-family="Arial, sans-serif" font-size="10" fill="#4a5568">
      <text x="1090" y="255" font-weight="bold" fill="#553c9a">Michael Torres, MD</text>
      <text x="1090" y="270">Springfield Cardiology</text>
      <text x="1090" y="290" font-weight="bold">Assessment:</text>
      <text x="1090" y="305">• AFib well-controlled</text>
      <text x="1090" y="320">• No RVR episodes</text>
      <text x="1090" y="340" font-weight="bold">Plan:</text>
      <text x="1090" y="355">• Continue Apixaban</text>
      <text x="1090" y="370">• Continue Diltiazem</text>
      <text x="1090" y="388" font-weight="bold" fill="#38a169">Return in 3 months</text>
    </g>
  </g>

  <!-- Care Coordination Arrows -->
  <path d="M290,280 C340,260 380,260 320,280" stroke="#718096" stroke-width="2" fill="none" stroke-dasharray="5,3" marker-end="url(#arrow)"/>
  <defs>
    <marker id="arrow" markerWidth="10" markerHeight="7" refX="9" refY="3.5" orient="auto">
      <polygon points="0 0, 10 3.5, 0 7" fill="#718096"/>
    </marker>
  </defs>

  <!-- Data Table -->
  <rect x="50" y="420" width="1300" height="280" rx="10" fill="white" stroke="#e2e8f0" stroke-width="2" filter="url(#shadow)"/>

  <!-- Table Header -->
  <rect x="50" y="420" width="1300" height="45" rx="10" fill="#2d3748"/>
  <rect x="50" y="455" width="1300" height="10" fill="#2d3748"/>

  <text x="130" y="450" font-family="Arial, sans-serif" font-size="12" font-weight="bold" fill="white" text-anchor="middle">Visit Date</text>
  <text x="280" y="450" font-family="Arial, sans-serif" font-size="12" font-weight="bold" fill="white" text-anchor="middle">Visit Type</text>
  <text x="470" y="450" font-family="Arial, sans-serif" font-size="12" font-weight="bold" fill="white" text-anchor="middle">Provider</text>
  <text x="680" y="450" font-family="Arial, sans-serif" font-size="12" font-weight="bold" fill="white" text-anchor="middle">Care Site</text>
  <text x="920" y="450" font-family="Arial, sans-serif" font-size="12" font-weight="bold" fill="white" text-anchor="middle">CPT Codes</text>
  <text x="1140" y="450" font-family="Arial, sans-serif" font-size="12" font-weight="bold" fill="white" text-anchor="middle">Est. Charges</text>
  <text x="1280" y="450" font-family="Arial, sans-serif" font-size="12" font-weight="bold" fill="white" text-anchor="middle">Status</text>

  <!-- Column dividers -->
  <line x1="200" y1="420" x2="200" y2="700" stroke="#e2e8f0" stroke-width="1"/>
  <line x1="360" y1="420" x2="360" y2="700" stroke="#e2e8f0" stroke-width="1"/>
  <line x1="580" y1="420" x2="580" y2="700" stroke="#e2e8f0" stroke-width="1"/>
  <line x1="790" y1="420" x2="790" y2="700" stroke="#e2e8f0" stroke-width="1"/>
  <line x1="1050" y1="420" x2="1050" y2="700" stroke="#e2e8f0" stroke-width="1"/>
  <line x1="1220" y1="420" x2="1220" y2="700" stroke="#e2e8f0" stroke-width="1"/>

  <!-- Row 1 - Jan 13 PCP -->
  <rect x="51" y="466" width="1298" height="44" fill="#f0fff4"/>
  <text x="130" y="493" font-family="Arial, sans-serif" font-size="11" fill="#2d3748" text-anchor="middle">2026-01-13</text>
  <rect x="220" y="478" width="120" height="24" rx="4" fill="#38a169"/>
  <text x="280" y="495" font-family="Arial, sans-serif" font-size="10" font-weight="bold" fill="white" text-anchor="middle">Office Visit</text>
  <text x="470" y="493" font-family="Arial, sans-serif" font-size="11" fill="#4a5568" text-anchor="middle">Sarah Chen, MD</text>
  <text x="680" y="493" font-family="Arial, sans-serif" font-size="11" fill="#4a5568" text-anchor="middle">Community Health Clinic</text>
  <text x="920" y="493" font-family="Arial, sans-serif" font-size="11" fill="#4a5568" text-anchor="middle">99214, 93000</text>
  <text x="1140" y="493" font-family="Arial, sans-serif" font-size="11" font-weight="bold" fill="#2d3748" text-anchor="middle">$114</text>
  <text x="1280" y="493" font-family="Arial, sans-serif" font-size="10" fill="#38a169" text-anchor="middle">✓ Complete</text>

  <!-- Row 2 - Jan 17 Cardio -->
  <rect x="51" y="510" width="1298" height="44" fill="#faf5ff"/>
  <text x="130" y="537" font-family="Arial, sans-serif" font-size="11" fill="#2d3748" text-anchor="middle">2026-01-17</text>
  <rect x="220" y="522" width="120" height="24" rx="4" fill="#805ad5"/>
  <text x="280" y="539" font-family="Arial, sans-serif" font-size="10" font-weight="bold" fill="white" text-anchor="middle">Cardiology</text>
  <text x="470" y="537" font-family="Arial, sans-serif" font-size="11" fill="#4a5568" text-anchor="middle">Michael Torres, MD</text>
  <text x="680" y="537" font-family="Arial, sans-serif" font-size="11" fill="#4a5568" text-anchor="middle">Springfield Cardiology</text>
  <text x="920" y="537" font-family="Arial, sans-serif" font-size="11" fill="#4a5568" text-anchor="middle">99214, 93306</text>
  <text x="1140" y="537" font-family="Arial, sans-serif" font-size="11" font-weight="bold" fill="#2d3748" text-anchor="middle">$314</text>
  <text x="1280" y="537" font-family="Arial, sans-serif" font-size="10" fill="#38a169" text-anchor="middle">✓ Complete</text>

  <!-- Row 3 - Jan 25 ED -->
  <rect x="51" y="554" width="1298" height="44" fill="#fff5f5"/>
  <text x="130" y="581" font-family="Arial, sans-serif" font-size="11" fill="#2d3748" text-anchor="middle">2026-01-25</text>
  <rect x="220" y="566" width="120" height="24" rx="4" fill="#c53030"/>
  <text x="280" y="583" font-family="Arial, sans-serif" font-size="10" font-weight="bold" fill="white" text-anchor="middle">Emergency</text>
  <text x="470" y="581" font-family="Arial, sans-serif" font-size="11" fill="#4a5568" text-anchor="middle">ED Physician</text>
  <text x="680" y="581" font-family="Arial, sans-serif" font-size="11" fill="#4a5568" text-anchor="middle">Springfield General ED</text>
  <text x="920" y="581" font-family="Arial, sans-serif" font-size="11" fill="#4a5568" text-anchor="middle">99284</text>
  <text x="1140" y="581" font-family="Arial, sans-serif" font-size="11" font-weight="bold" fill="#2d3748" text-anchor="middle">$450</text>
  <text x="1280" y="581" font-family="Arial, sans-serif" font-size="10" fill="#38a169" text-anchor="middle">✓ Complete</text>

  <!-- Row 4 - Jan 27 PCP -->
  <rect x="51" y="598" width="1298" height="44" fill="#f0fff4"/>
  <text x="130" y="625" font-family="Arial, sans-serif" font-size="11" fill="#2d3748" text-anchor="middle">2026-01-27</text>
  <rect x="220" y="610" width="120" height="24" rx="4" fill="#38a169"/>
  <text x="280" y="627" font-family="Arial, sans-serif" font-size="10" font-weight="bold" fill="white" text-anchor="middle">Office Visit</text>
  <text x="470" y="625" font-family="Arial, sans-serif" font-size="11" fill="#4a5568" text-anchor="middle">Sarah Chen, MD</text>
  <text x="680" y="625" font-family="Arial, sans-serif" font-size="11" fill="#4a5568" text-anchor="middle">Community Health Clinic</text>
  <text x="920" y="625" font-family="Arial, sans-serif" font-size="11" fill="#4a5568" text-anchor="middle">99214</text>
  <text x="1140" y="625" font-family="Arial, sans-serif" font-size="11" font-weight="bold" fill="#2d3748" text-anchor="middle">$89</text>
  <text x="1280" y="625" font-family="Arial, sans-serif" font-size="10" fill="#38a169" text-anchor="middle">✓ Complete</text>

  <!-- Row 5 - Feb 14 Cardio -->
  <rect x="51" y="642" width="1298" height="44" fill="#faf5ff"/>
  <text x="130" y="669" font-family="Arial, sans-serif" font-size="11" fill="#2d3748" text-anchor="middle">2026-02-14</text>
  <rect x="220" y="654" width="120" height="24" rx="4" fill="#805ad5"/>
  <text x="280" y="671" font-family="Arial, sans-serif" font-size="10" font-weight="bold" fill="white" text-anchor="middle">Cardiology</text>
  <text x="470" y="669" font-family="Arial, sans-serif" font-size="11" fill="#4a5568" text-anchor="middle">Michael Torres, MD</text>
  <text x="680" y="669" font-family="Arial, sans-serif" font-size="11" fill="#4a5568" text-anchor="middle">Springfield Cardiology</text>
  <text x="920" y="669" font-family="Arial, sans-serif" font-size="11" fill="#4a5568" text-anchor="middle">99214</text>
  <text x="1140" y="669" font-family="Arial, sans-serif" font-size="11" font-weight="bold" fill="#2d3748" text-anchor="middle">$89</text>
  <text x="1280" y="669" font-family="Arial, sans-serif" font-size="10" fill="#38a169" text-anchor="middle">✓ Complete</text>

  <!-- Row count and total -->
  <rect x="50" y="686" width="1300" height="30" rx="0" fill="#edf2f7"/>
  <text x="400" y="706" font-family="Arial, sans-serif" font-size="11" fill="#4a5568" text-anchor="middle">(5 visits)</text>
  <text x="1140" y="706" font-family="Arial, sans-serif" font-size="12" font-weight="bold" fill="#2d3748" text-anchor="middle">Total: $1,056</text>

  <!-- Summary Stats -->
  <rect x="50" y="740" width="320" height="180" rx="10" fill="white" stroke="#2b6cb0" stroke-width="2" filter="url(#softShadow)"/>
  <rect x="50" y="740" width="320" height="35" rx="10" fill="#2b6cb0"/>
  <rect x="50" y="765" width="320" height="10" fill="#2b6cb0"/>
  <text x="210" y="765" font-family="Arial, sans-serif" font-size="13" font-weight="bold" fill="white" text-anchor="middle">OMOP CDM MAPPING</text>

  <g font-family="Arial, sans-serif" font-size="11" fill="#4a5568">
    <text x="70" y="800" font-weight="bold" fill="#2b6cb0">VISIT_OCCURRENCE:</text>
    <text x="70" y="820">• visit_concept_id: 9202 (Outpatient)</text>
    <text x="70" y="840">• visit_concept_id: 9203 (ED)</text>
    <text x="70" y="860">• visit_start_date: encounter date</text>
    <text x="70" y="880">• care_site_id: linked to CARE_SITE</text>
    <text x="70" y="900">• provider_id: linked to PROVIDER</text>
  </g>

  <!-- Care Team Summary -->
  <rect x="390" y="740" width="320" height="180" rx="10" fill="white" stroke="#38a169" stroke-width="2" filter="url(#softShadow)"/>
  <rect x="390" y="740" width="320" height="35" rx="10" fill="#38a169"/>
  <rect x="390" y="765" width="320" height="10" fill="#38a169"/>
  <text x="550" y="765" font-family="Arial, sans-serif" font-size="13" font-weight="bold" fill="white" text-anchor="middle">CARE TEAM SUMMARY</text>

  <g font-family="Arial, sans-serif" font-size="11" fill="#4a5568">
    <text x="410" y="800" font-weight="bold" fill="#276749">Primary Care:</text>
    <text x="410" y="820">Sarah Chen, MD — 3 visits</text>
    <text x="410" y="845" font-weight="bold" fill="#553c9a">Cardiology:</text>
    <text x="410" y="865">Michael Torres, MD — 2 visits</text>
    <text x="410" y="890" font-weight="bold" fill="#c53030">Emergency:</text>
    <text x="410" y="910">ED Physician — 1 visit</text>
  </g>

  <!-- Outcome Summary -->
  <rect x="730" y="740" width="320" height="180" rx="10" fill="white" stroke="#805ad5" stroke-width="2" filter="url(#softShadow)"/>
  <rect x="730" y="740" width="320" height="35" rx="10" fill="#805ad5"/>
  <rect x="730" y="765" width="320" height="10" fill="#805ad5"/>
  <text x="890" y="765" font-family="Arial, sans-serif" font-size="13" font-weight="bold" fill="white" text-anchor="middle">CLINICAL OUTCOMES</text>

  <g font-family="Arial, sans-serif" font-size="11" fill="#4a5568">
    <text x="750" y="800">✓ AFib diagnosed and treated</text>
    <text x="750" y="825">✓ CHA₂DS₂-VASc = 3 → Anticoagulated</text>
    <text x="750" y="850">✓ BP controlled: 132/82 (HEDIS met)</text>
    <text x="750" y="875">✓ RVR episode managed, no admission</text>
    <text x="750" y="900">✓ Rate control achieved: HR 72</text>
  </g>

  <!-- Revenue Analysis -->
  <rect x="1070" y="740" width="280" height="180" rx="10" fill="white" stroke="#dd6b20" stroke-width="2" filter="url(#softShadow)"/>
  <rect x="1070" y="740" width="280" height="35" rx="10" fill="#dd6b20"/>
  <rect x="1070" y="765" width="280" height="10" fill="#dd6b20"/>
  <text x="1210" y="765" font-family="Arial, sans-serif" font-size="13" font-weight="bold" fill="white" text-anchor="middle">REVENUE ANALYSIS</text>

  <g font-family="Arial, sans-serif" font-size="11" fill="#4a5568">
    <text x="1090" y="800">Office Visits (4): $406</text>
    <text x="1090" y="820">ED Visit (1): $450</text>
    <text x="1090" y="840">Procedures: $225 (Echo)</text>
    <text x="1090" y="865" font-weight="bold" fill="#c05621">Total Est. Medicare: $1,056</text>
    <text x="1090" y="895" font-size="10" fill="#718096">CPT codes linked to</text>
    <text x="1090" y="910" font-size="10" fill="#718096">PROCEDURE_OCCURRENCE table</text>
  </g>
</svg>