<?xml version="1.0" encoding="UTF-8"?>
<svg xmlns="http://www.w3.org/2000/svg" viewBox="0 0 1300 900" width="1300" height="900">
  <defs>
    <!-- Gradients -->
    <linearGradient id="headerGrad" x1="0%" y1="0%" x2="100%" y2="0%">
      <stop offset="0%" style="stop-color:#2d3748"/>
      <stop offset="100%" style="stop-color:#4a5568"/>
    </linearGradient>
    <linearGradient id="pcpGrad" x1="0%" y1="0%" x2="0%" y2="100%">
      <stop offset="0%" style="stop-color:#38a169"/>
      <stop offset="100%" style="stop-color:#2f855a"/>
    </linearGradient>
    <linearGradient id="cardioGrad" x1="0%" y1="0%" x2="0%" y2="100%">
      <stop offset="0%" style="stop-color:#805ad5"/>
      <stop offset="100%" style="stop-color:#6b46c1"/>
    </linearGradient>
    <linearGradient id="nursingGrad" x1="0%" y1="0%" x2="0%" y2="100%">
      <stop offset="0%" style="stop-color:#4299e1"/>
      <stop offset="100%" style="stop-color:#3182ce"/>
    </linearGradient>
    <linearGradient id="pharmacyGrad" x1="0%" y1="0%" x2="0%" y2="100%">
      <stop offset="0%" style="stop-color:#ed8936"/>
      <stop offset="100%" style="stop-color:#dd6b20"/>
    </linearGradient>

    <!-- Shadow filter -->
    <filter id="shadow" x="-10%" y="-10%" width="120%" height="120%">
      <feDropShadow dx="2" dy="3" stdDeviation="3" flood-opacity="0.2"/>
    </filter>
    <filter id="softShadow" x="-5%" y="-5%" width="110%" height="110%">
      <feDropShadow dx="1" dy="2" stdDeviation="2" flood-opacity="0.15"/>
    </filter>
  </defs>

  <!-- Background -->
  <rect width="1300" height="900" fill="#f8fafc"/>

  <!-- Header -->
  <rect x="0" y="0" width="1300" height="80" fill="url(#headerGrad)"/>
  <text x="650" y="35" font-family="Arial, sans-serif" font-size="26" font-weight="bold" fill="white" text-anchor="middle">PROVIDER PANEL &amp; CARE TEAM</text>
  <text x="650" y="60" font-family="Arial, sans-serif" font-size="14" fill="#a0aec0" text-anchor="middle">Maria Rodriguez — Interdisciplinary Care Team for AFib Management</text>

  <!-- Provider Cards Row -->
  <!-- Card 1: PCP -->
  <rect x="50" y="100" width="280" height="350" rx="15" fill="white" stroke="#38a169" stroke-width="3" filter="url(#shadow)"/>
  <rect x="50" y="100" width="280" height="80" rx="15" fill="url(#pcpGrad)"/>
  <rect x="50" y="165" width="280" height="15" fill="url(#pcpGrad)"/>

  <!-- Avatar circle -->
  <circle cx="190" cy="140" r="35" fill="white"/>
  <text x="190" y="150" font-family="Arial, sans-serif" font-size="28" text-anchor="middle">👩‍⚕️</text>

  <text x="190" y="205" font-family="Arial, sans-serif" font-size="16" font-weight="bold" fill="#2d3748" text-anchor="middle">Sarah Chen, MD</text>
  <text x="190" y="225" font-family="Arial, sans-serif" font-size="12" fill="#718096" text-anchor="middle">Primary Care Physician</text>

  <g font-family="Arial, sans-serif" font-size="11" fill="#4a5568">
    <text x="70" y="260" font-weight="bold" fill="#276749">Specialty:</text>
    <text x="140" y="260">Family Medicine</text>

    <text x="70" y="285" font-weight="bold" fill="#276749">NPI:</text>
    <text x="140" y="285">1234567890</text>

    <text x="70" y="310" font-weight="bold" fill="#276749">Care Site:</text>
    <text x="70" y="325">Community Health Clinic</text>

    <text x="70" y="355" font-weight="bold" fill="#276749">Role in Maria's Care:</text>
    <text x="70" y="375">• Initial AFib detection (Jan 13)</text>
    <text x="70" y="392">• Started anticoagulation</text>
    <text x="70" y="409">• Cardiology referral</text>
    <text x="70" y="426">• Ongoing DM management</text>
  </g>

  <rect x="70" y="438" width="240" height="8" rx="4" fill="#e2e8f0"/>
  <rect x="70" y="438" width="180" height="8" rx="4" fill="#38a169"/>
  <text x="190" y="456" font-family="Arial, sans-serif" font-size="9" fill="#718096" text-anchor="middle">3 visits | Primary responsibility</text>

  <!-- Card 2: Cardiologist -->
  <rect x="360" y="100" width="280" height="350" rx="15" fill="white" stroke="#805ad5" stroke-width="3" filter="url(#shadow)"/>
  <rect x="360" y="100" width="280" height="80" rx="15" fill="url(#cardioGrad)"/>
  <rect x="360" y="165" width="280" height="15" fill="url(#cardioGrad)"/>

  <circle cx="500" cy="140" r="35" fill="white"/>
  <text x="500" y="150" font-family="Arial, sans-serif" font-size="28" text-anchor="middle">👨‍⚕️</text>

  <text x="500" y="205" font-family="Arial, sans-serif" font-size="16" font-weight="bold" fill="#2d3748" text-anchor="middle">Michael Torres, MD</text>
  <text x="500" y="225" font-family="Arial, sans-serif" font-size="12" fill="#718096" text-anchor="middle">Cardiologist</text>

  <g font-family="Arial, sans-serif" font-size="11" fill="#4a5568">
    <text x="380" y="260" font-weight="bold" fill="#553c9a">Specialty:</text>
    <text x="450" y="260">Cardiology (EP)</text>

    <text x="380" y="285" font-weight="bold" fill="#553c9a">NPI:</text>
    <text x="450" y="285">0987654321</text>

    <text x="380" y="310" font-weight="bold" fill="#553c9a">Care Site:</text>
    <text x="380" y="325">Springfield Cardiology Associates</text>

    <text x="380" y="355" font-weight="bold" fill="#553c9a">Role in Maria's Care:</text>
    <text x="380" y="375">• Echo interpretation (Jan 17)</text>
    <text x="380" y="392">• Rate control optimization</text>
    <text x="380" y="409">• Rhythm vs rate decision</text>
    <text x="380" y="426">• Long-term AFib strategy</text>
  </g>

  <rect x="380" y="438" width="240" height="8" rx="4" fill="#e2e8f0"/>
  <rect x="380" y="438" width="120" height="8" rx="4" fill="#805ad5"/>
  <text x="500" y="456" font-family="Arial, sans-serif" font-size="9" fill="#718096" text-anchor="middle">2 visits | Specialty consult</text>

  <!-- Card 3: Nurse -->
  <rect x="670" y="100" width="280" height="350" rx="15" fill="white" stroke="#3182ce" stroke-width="3" filter="url(#shadow)"/>
  <rect x="670" y="100" width="280" height="80" rx="15" fill="url(#nursingGrad)"/>
  <rect x="670" y="165" width="280" height="15" fill="url(#nursingGrad)"/>

  <circle cx="810" cy="140" r="35" fill="white"/>
  <text x="810" y="150" font-family="Arial, sans-serif" font-size="28" text-anchor="middle">👩‍⚕️</text>

  <text x="810" y="205" font-family="Arial, sans-serif" font-size="16" font-weight="bold" fill="#2d3748" text-anchor="middle">Lisa Brown, RN</text>
  <text x="810" y="225" font-family="Arial, sans-serif" font-size="12" fill="#718096" text-anchor="middle">Registered Nurse</text>

  <g font-family="Arial, sans-serif" font-size="11" fill="#4a5568">
    <text x="690" y="260" font-weight="bold" fill="#2b6cb0">Specialty:</text>
    <text x="760" y="260">Nursing (MA)</text>

    <text x="690" y="285" font-weight="bold" fill="#2b6cb0">Credential:</text>
    <text x="760" y="285">RN License</text>

    <text x="690" y="310" font-weight="bold" fill="#2b6cb0">Care Site:</text>
    <text x="690" y="325">Community Health Clinic</text>

    <text x="690" y="355" font-weight="bold" fill="#2b6cb0">Role in Maria's Care:</text>
    <text x="690" y="375">• Vital signs (detected irreg pulse)</text>
    <text x="690" y="392">• EKG performance</text>
    <text x="690" y="409">• Care coordination</text>
    <text x="690" y="426">• Patient education</text>
  </g>

  <rect x="690" y="438" width="240" height="8" rx="4" fill="#e2e8f0"/>
  <rect x="690" y="438" width="200" height="8" rx="4" fill="#3182ce"/>
  <text x="810" y="456" font-family="Arial, sans-serif" font-size="9" fill="#718096" text-anchor="middle">Care support | Incident-to billing</text>

  <!-- Card 4: Pharmacist -->
  <rect x="980" y="100" width="280" height="350" rx="15" fill="white" stroke="#dd6b20" stroke-width="3" filter="url(#shadow)"/>
  <rect x="980" y="100" width="280" height="80" rx="15" fill="url(#pharmacyGrad)"/>
  <rect x="980" y="165" width="280" height="15" fill="url(#pharmacyGrad)"/>

  <circle cx="1120" cy="140" r="35" fill="white"/>
  <text x="1120" y="150" font-family="Arial, sans-serif" font-size="28" text-anchor="middle">💊</text>

  <text x="1120" y="205" font-family="Arial, sans-serif" font-size="16" font-weight="bold" fill="#2d3748" text-anchor="middle">Jessica Martinez, PharmD</text>
  <text x="1120" y="225" font-family="Arial, sans-serif" font-size="12" fill="#718096" text-anchor="middle">Clinical Pharmacist</text>

  <g font-family="Arial, sans-serif" font-size="11" fill="#4a5568">
    <text x="1000" y="260" font-weight="bold" fill="#c05621">Specialty:</text>
    <text x="1070" y="260">Clinical Pharmacy</text>

    <text x="1000" y="285" font-weight="bold" fill="#c05621">Credential:</text>
    <text x="1070" y="285">PharmD, BCPS</text>

    <text x="1000" y="310" font-weight="bold" fill="#c05621">Care Site:</text>
    <text x="1000" y="325">Community Health Clinic Pharmacy</text>

    <text x="1000" y="355" font-weight="bold" fill="#c05621">Role in Maria's Care:</text>
    <text x="1000" y="375">• Drug interaction review</text>
    <text x="1000" y="392">• Anticoagulation counseling</text>
    <text x="1000" y="409">• Medication reconciliation</text>
    <text x="1000" y="426">• MTM services</text>
  </g>

  <rect x="1000" y="438" width="240" height="8" rx="4" fill="#e2e8f0"/>
  <rect x="1000" y="438" width="160" height="8" rx="4" fill="#dd6b20"/>
  <text x="1120" y="456" font-family="Arial, sans-serif" font-size="9" fill="#718096" text-anchor="middle">MTM billable | Drug safety</text>

  <!-- Data Table -->
  <rect x="50" y="480" width="1200" height="200" rx="10" fill="white" stroke="#e2e8f0" stroke-width="2" filter="url(#shadow)"/>

  <!-- Table Header -->
  <rect x="50" y="480" width="1200" height="45" rx="10" fill="#2d3748"/>
  <rect x="50" y="515" width="1200" height="10" fill="#2d3748"/>
  <text x="650" y="510" font-family="Arial, sans-serif" font-size="14" font-weight="bold" fill="white" text-anchor="middle">PROVIDER TABLE (OMOP CDM)</text>

  <!-- Column Headers -->
  <text x="120" y="555" font-family="Arial, sans-serif" font-size="11" font-weight="bold" fill="#4a5568" text-anchor="middle">provider_id</text>
  <text x="280" y="555" font-family="Arial, sans-serif" font-size="11" font-weight="bold" fill="#4a5568" text-anchor="middle">provider_name</text>
  <text x="480" y="555" font-family="Arial, sans-serif" font-size="11" font-weight="bold" fill="#4a5568" text-anchor="middle">specialty_concept_id</text>
  <text x="660" y="555" font-family="Arial, sans-serif" font-size="11" font-weight="bold" fill="#4a5568" text-anchor="middle">specialty_source</text>
  <text x="840" y="555" font-family="Arial, sans-serif" font-size="11" font-weight="bold" fill="#4a5568" text-anchor="middle">NPI</text>
  <text x="1000" y="555" font-family="Arial, sans-serif" font-size="11" font-weight="bold" fill="#4a5568" text-anchor="middle">care_site_id</text>
  <text x="1150" y="555" font-family="Arial, sans-serif" font-size="11" font-weight="bold" fill="#4a5568" text-anchor="middle">Billing Role</text>

  <!-- Column dividers -->
  <line x1="190" y1="525" x2="190" y2="680" stroke="#e2e8f0" stroke-width="1"/>
  <line x1="380" y1="525" x2="380" y2="680" stroke="#e2e8f0" stroke-width="1"/>
  <line x1="570" y1="525" x2="570" y2="680" stroke="#e2e8f0" stroke-width="1"/>
  <line x1="750" y1="525" x2="750" y2="680" stroke="#e2e8f0" stroke-width="1"/>
  <line x1="920" y1="525" x2="920" y2="680" stroke="#e2e8f0" stroke-width="1"/>
  <line x1="1080" y1="525" x2="1080" y2="680" stroke="#e2e8f0" stroke-width="1"/>

  <!-- Row 1 - Dr. Chen -->
  <rect x="51" y="565" width="1198" height="30" fill="#f0fff4"/>
  <text x="120" y="585" font-family="Arial, sans-serif" font-size="11" fill="#2d3748" text-anchor="middle">1001</text>
  <text x="280" y="585" font-family="Arial, sans-serif" font-size="11" fill="#2d3748" text-anchor="middle">Sarah Chen, MD</text>
  <text x="480" y="585" font-family="Arial, sans-serif" font-size="11" fill="#805ad5" text-anchor="middle">38004446</text>
  <text x="660" y="585" font-family="Arial, sans-serif" font-size="11" fill="#4a5568" text-anchor="middle">Family Medicine</text>
  <text x="840" y="585" font-family="Arial, sans-serif" font-size="11" fill="#4a5568" text-anchor="middle">1234567890</text>
  <text x="1000" y="585" font-family="Arial, sans-serif" font-size="11" fill="#4a5568" text-anchor="middle">101</text>
  <text x="1150" y="585" font-family="Arial, sans-serif" font-size="10" fill="#38a169" text-anchor="middle">Rendering</text>

  <!-- Row 2 - Dr. Torres -->
  <rect x="51" y="595" width="1198" height="30" fill="#faf5ff"/>
  <text x="120" y="615" font-family="Arial, sans-serif" font-size="11" fill="#2d3748" text-anchor="middle">1002</text>
  <text x="280" y="615" font-family="Arial, sans-serif" font-size="11" fill="#2d3748" text-anchor="middle">Michael Torres, MD</text>
  <text x="480" y="615" font-family="Arial, sans-serif" font-size="11" fill="#805ad5" text-anchor="middle">38004451</text>
  <text x="660" y="615" font-family="Arial, sans-serif" font-size="11" fill="#4a5568" text-anchor="middle">Cardiology</text>
  <text x="840" y="615" font-family="Arial, sans-serif" font-size="11" fill="#4a5568" text-anchor="middle">0987654321</text>
  <text x="1000" y="615" font-family="Arial, sans-serif" font-size="11" fill="#4a5568" text-anchor="middle">102</text>
  <text x="1150" y="615" font-family="Arial, sans-serif" font-size="10" fill="#805ad5" text-anchor="middle">Rendering</text>

  <!-- Row 3 - Lisa Brown -->
  <rect x="51" y="625" width="1198" height="30" fill="#ebf8ff"/>
  <text x="120" y="645" font-family="Arial, sans-serif" font-size="11" fill="#2d3748" text-anchor="middle">1003</text>
  <text x="280" y="645" font-family="Arial, sans-serif" font-size="11" fill="#2d3748" text-anchor="middle">Lisa Brown, RN</text>
  <text x="480" y="645" font-family="Arial, sans-serif" font-size="11" fill="#805ad5" text-anchor="middle">38004467</text>
  <text x="660" y="645" font-family="Arial, sans-serif" font-size="11" fill="#4a5568" text-anchor="middle">Nursing</text>
  <text x="840" y="645" font-family="Arial, sans-serif" font-size="11" fill="#718096" text-anchor="middle">—</text>
  <text x="1000" y="645" font-family="Arial, sans-serif" font-size="11" fill="#4a5568" text-anchor="middle">101</text>
  <text x="1150" y="645" font-family="Arial, sans-serif" font-size="10" fill="#3182ce" text-anchor="middle">Incident-to</text>

  <!-- Row 4 - Jessica Martinez -->
  <rect x="51" y="655" width="1198" height="30" fill="#fffaf0"/>
  <text x="120" y="675" font-family="Arial, sans-serif" font-size="11" fill="#2d3748" text-anchor="middle">1004</text>
  <text x="280" y="675" font-family="Arial, sans-serif" font-size="11" fill="#2d3748" text-anchor="middle">Jessica Martinez, PharmD</text>
  <text x="480" y="675" font-family="Arial, sans-serif" font-size="11" fill="#805ad5" text-anchor="middle">38004514</text>
  <text x="660" y="675" font-family="Arial, sans-serif" font-size="11" fill="#4a5568" text-anchor="middle">Pharmacy</text>
  <text x="840" y="675" font-family="Arial, sans-serif" font-size="11" fill="#718096" text-anchor="middle">—</text>
  <text x="1000" y="675" font-family="Arial, sans-serif" font-size="11" fill="#4a5568" text-anchor="middle">103</text>
  <text x="1150" y="675" font-family="Arial, sans-serif" font-size="10" fill="#dd6b20" text-anchor="middle">MTM Services</text>

  <!-- OMOP Relationships Box -->
  <rect x="50" y="710" width="380" height="160" rx="10" fill="white" stroke="#2d3748" stroke-width="2" filter="url(#softShadow)"/>
  <rect x="50" y="710" width="380" height="35" rx="10" fill="#2d3748"/>
  <rect x="50" y="735" width="380" height="10" fill="#2d3748"/>
  <text x="240" y="735" font-family="Arial, sans-serif" font-size="12" font-weight="bold" fill="white" text-anchor="middle">🔗 OMOP CDM RELATIONSHIPS</text>

  <g font-family="Arial, sans-serif" font-size="10" fill="#4a5568">
    <text x="70" y="770" font-weight="bold" fill="#2d3748">PROVIDER → CARE_SITE</text>
    <text x="80" y="790">provider.care_site_id → care_site.care_site_id</text>

    <text x="70" y="815" font-weight="bold" fill="#2d3748">VISIT_OCCURRENCE → PROVIDER</text>
    <text x="80" y="835">visit.provider_id → provider.provider_id</text>

    <text x="70" y="860" font-weight="bold" fill="#2d3748">All Clinical Tables → PROVIDER</text>
    <text x="80" y="880">condition/measurement/drug → provider_id</text>
  </g>

  <!-- Quality Attribution Box -->
  <rect x="460" y="710" width="380" height="160" rx="10" fill="white" stroke="#38a169" stroke-width="2" filter="url(#softShadow)"/>
  <rect x="460" y="710" width="380" height="35" rx="10" fill="#38a169"/>
  <rect x="460" y="735" width="380" height="10" fill="#38a169"/>
  <text x="650" y="735" font-family="Arial, sans-serif" font-size="12" font-weight="bold" fill="white" text-anchor="middle">📊 QUALITY ATTRIBUTION</text>

  <g font-family="Arial, sans-serif" font-size="10" fill="#4a5568">
    <text x="480" y="770" font-weight="bold" fill="#276749">Maria's Primary Attribution:</text>
    <text x="490" y="790">Sarah Chen, MD (Provider ID: 1001)</text>

    <text x="480" y="815" font-weight="bold" fill="#276749">Quality Measures:</text>
    <text x="490" y="835">• HEDIS BP Control: Attributed to Dr. Chen</text>
    <text x="490" y="855">• AFib Anticoag: Attributed to Dr. Torres</text>
    <text x="490" y="875">• DM HbA1c: Attributed to Dr. Chen</text>
  </g>

  <!-- Billing Reference -->
  <rect x="870" y="710" width="380" height="160" rx="10" fill="white" stroke="#805ad5" stroke-width="2" filter="url(#softShadow)"/>
  <rect x="870" y="710" width="380" height="35" rx="10" fill="#805ad5"/>
  <rect x="870" y="735" width="380" height="10" fill="#805ad5"/>
  <text x="1060" y="735" font-family="Arial, sans-serif" font-size="12" font-weight="bold" fill="white" text-anchor="middle">💵 BILLING IMPLICATIONS</text>

  <g font-family="Arial, sans-serif" font-size="10" fill="#4a5568">
    <text x="890" y="770" font-weight="bold" fill="#553c9a">Rendering Provider:</text>
    <text x="900" y="790">Bills directly under own NPI (MD/DO)</text>

    <text x="890" y="815" font-weight="bold" fill="#553c9a">Incident-to:</text>
    <text x="900" y="835">RN services billed under supervising MD</text>

    <text x="890" y="860" font-weight="bold" fill="#553c9a">MTM Services:</text>
    <text x="900" y="880">PharmD bills 99605-99607 for MTM</text>
  </g>
</svg>